<svg width="700" height="700" viewBox="0 0 700 700" fill="none" xmlns="http://www.w3.org/2000/svg">
<rect width="700" height="700" fill="white"/>
<path d="M344.065 379.407C331.835 376.939 322.409 367.159 320.394 354.846C318.378 342.533 324.195 330.258 335 324.019C345.805 317.781 359.344 318.881 368.999 326.783C378.655 334.685 382.412 347.738 378.435 359.564C370 384.641 370 384.641 460 436.603C485.216 451.161 496.34 481.724 486.381 509.085C476.423 536.447 448.256 552.709 419.581 547.652C390.906 542.596 370 517.682 370 488.564C370 384.641 370 384.641 344.065 379.407Z" fill="black"/>
<path d="M350 365C358.284 365 365 358.284 365 350C365 341.716 358.284 335 350 335C341.716 335 335 341.716 335 350C335 358.284 341.716 365 350 365Z" fill="black"/>
<path d="M321.565 359.564C317.588 347.738 321.345 334.685 331 326.783C340.656 318.881 354.195 317.781 365 324.019C375.805 330.258 381.621 342.533 379.606 354.846C377.591 367.159 368.165 376.939 355.935 379.407C330 384.641 330 384.641 330 488.564C330 517.682 309.094 542.596 280.419 547.652C251.744 552.709 223.577 536.447 213.618 509.085C203.66 481.724 214.783 451.161 240 436.603C330 384.641 330 384.641 321.565 359.564Z" fill="black"/>
<path d="M350 365C358.284 365 365 358.284 365 350C365 341.716 358.284 335 350 335C341.716 335 335 341.716 335 350C335 358.284 341.716 365 350 365Z" fill="black"/>
<path d="M327.5 330.157C335.753 320.799 348.936 317.526 360.607 321.938C372.278 326.349 380 337.523 380 350C380 362.477 372.278 373.651 360.607 378.062C348.936 382.474 335.753 379.201 327.5 369.843C310 350 310 350 220 401.962C194.783 416.52 162.754 410.873 144.037 388.567C125.321 366.262 125.321 333.738 144.037 311.433C162.754 289.127 194.783 283.48 220 298.039C310 350 310 350 327.5 330.157Z" fill="black"/>
<path d="M350 365C358.284 365 365 358.284 365 350C365 341.716 358.284 335 350 335C341.716 335 335 341.716 335 350C335 358.284 341.716 365 350 365Z" fill="black"/>
<path d="M355.935 320.593C368.165 323.061 377.591 332.841 379.606 345.154C381.621 357.467 375.805 369.742 365 375.981C354.195 382.219 340.656 381.119 331 373.217C321.345 365.315 317.588 352.262 321.565 340.436C330 315.359 330 315.359 240 263.397C214.783 248.839 203.66 218.276 213.618 190.915C223.577 163.553 251.744 147.291 280.419 152.347C309.094 157.404 330 182.318 330 211.436C330 315.359 330 315.359 355.935 320.593Z" fill="black"/>
<path d="M350 365C358.284 365 365 358.284 365 350C365 341.716 358.284 335 350 335C341.716 335 335 341.716 335 350C335 358.284 341.716 365 350 365Z" fill="black"/>
<path d="M378.435 340.436C382.412 352.262 378.655 365.315 368.999 373.217C359.344 381.119 345.805 382.219 335 375.981C324.195 369.742 318.378 357.467 320.394 345.154C322.409 332.841 331.835 323.061 344.065 320.593C370 315.359 370 315.359 370 211.436C370 182.318 390.906 157.404 419.581 152.347C448.256 147.291 476.423 163.553 486.381 190.915C496.34 218.276 485.216 248.839 460 263.397C370 315.359 370 315.359 378.435 340.436Z" fill="black"/>
<path d="M350 365C358.284 365 365 358.284 365 350C365 341.716 358.284 335 350 335C341.716 335 335 341.716 335 350C335 358.284 341.716 365 350 365Z" fill="black"/>
<path d="M372.5 369.843C364.247 379.201 351.064 382.474 339.393 378.062C327.722 373.651 320 362.477 320 350C320 337.523 327.722 326.349 339.393 321.938C351.064 317.526 364.247 320.799 372.5 330.157C390 350 390 350 480 298.039C505.217 283.48 537.246 289.127 555.963 311.433C574.679 333.738 574.679 366.262 555.963 388.567C537.246 410.873 505.217 416.52 480 401.962C390 350 390 350 372.5 369.843Z" fill="black"/>
</svg>
