<svg xmlns="http://www.w3.org/2000/svg" xmlns:xlink="http://www.w3.org/1999/xlink" fill="none" viewBox="0 0 700 700">
  <defs>
    <path id="a" fill="#000" d="M350 365c8.284 0 15-6.716 15-15 0-8.284-6.716-15-15-15-8.284 0-15 6.716-15 15 0 8.284 6.716 15 15 15Z"/>
  </defs>
  <path fill="#fff" d="M0 0h700v700H0z"/>
  <path fill="#000" d="M344.065 379.407a30 30 0 1 1 34.37-19.843C370 384.641 370 384.641 460 436.603c25.216 14.558 36.34 45.121 26.381 72.482-9.958 27.362-38.125 43.624-66.8 38.567-28.675-5.056-49.581-29.97-49.581-59.088 0-103.923 0-103.923-25.935-109.157Z"/>
  <use xlink:href="#a"/>
  <path fill="#000" d="M321.565 359.564a30.001 30.001 0 1 1 34.37 19.843C330 384.641 330 384.641 330 488.564c0 29.118-20.906 54.032-49.581 59.088-28.675 5.057-56.842-11.205-66.801-38.567-9.958-27.361 1.165-57.924 26.382-72.482 90-51.962 90-51.962 81.565-77.039Z"/>
  <use xlink:href="#a"/>
  <path fill="#000" d="M327.5 330.157a29.999 29.999 0 0 1 33.107-8.219A29.999 29.999 0 0 1 380 350a29.999 29.999 0 0 1-19.393 28.062 29.999 29.999 0 0 1-33.107-8.219C310 350 310 350 220 401.962c-25.217 14.558-57.246 8.911-75.963-13.395-18.716-22.305-18.716-54.829 0-77.134 18.717-22.306 50.746-27.953 75.963-13.394C310 350 310 350 327.5 330.157Z"/>
  <use xlink:href="#a"/>
  <path fill="#000" d="M355.935 320.593a29.999 29.999 0 0 1 23.671 24.561A30.002 30.002 0 0 1 331 373.217a30.003 30.003 0 0 1-9.435-32.781C330 315.359 330 315.359 240 263.397c-25.217-14.558-36.34-45.121-26.382-72.482 9.959-27.362 38.126-43.624 66.801-38.568C309.094 157.404 330 182.318 330 211.436c0 103.923 0 103.923 25.935 109.157Z"/>
  <use xlink:href="#a"/>
  <path fill="#000" d="M378.435 340.436A30.001 30.001 0 0 1 335 375.981a30 30 0 0 1 9.065-55.388C370 315.359 370 315.359 370 211.436c0-29.118 20.906-54.032 49.581-59.089 28.675-5.056 56.842 11.206 66.8 38.568 9.959 27.361-1.165 57.924-26.381 72.482-90 51.962-90 51.962-81.565 77.039Z"/>
  <use xlink:href="#a"/>
  <path fill="#000" d="M372.5 369.843a29.999 29.999 0 0 1-33.107 8.219A29.999 29.999 0 0 1 320 350a29.999 29.999 0 0 1 19.393-28.062 29.999 29.999 0 0 1 33.107 8.219C390 350 390 350 480 298.039c25.217-14.559 57.246-8.912 75.963 13.394 18.716 22.305 18.716 54.829 0 77.134-18.717 22.306-50.746 27.953-75.963 13.395C390 350 390 350 372.5 369.843Z"/>
  <path fill="#fff" d="M350 365c8.284 0 15-6.716 15-15 0-8.284-6.716-15-15-15-8.284 0-15 6.716-15 15 0 8.284 6.716 15 15 15Z"/>
</svg>