<svg xmlns="http://www.w3.org/2000/svg" viewBox="0 0 135 358">
  <path fill="currentColor" fill-rule="evenodd" d="M48.815 26.963c38.198 36.84 47.289 71.716 41.944 104.372-4.203 34.108-23.39 66.916-41.9 98.566l-.739 1.264C26.237 272.385 4.802 314.775 0 358h96c-4.562-30.716 4.746-62.184 14.363-94.695a4022.74 4022.74 0 0 0 1.517-5.135c13.265-43.515 25.62-85.842 21.362-126.835-5.367-40.277-26.106-78.315-76.301-114.374a9 9 0 0 1-8.126 10.002Z" clip-rule="evenodd"/>
  <path fill="currentColor" fill-rule="evenodd" d="M66 18c0 9.941-8.059 18-18 18s-18-8.059-18-18S38.059 0 48 0s18 8.059 18 18Zm-9 0a9 9 0 1 1-18 0 9 9 0 0 1 18 0Z" clip-rule="evenodd"/>
</svg>